# xmcd CD database file
#
# Track frame offsets:
#	150
#	12550
#	21765
#	31810
#	40620
#	53575
#	66887
#	78882
#	88970
#	98317
#	106320
#	123512
#	135375
#	146272
#	156837
#	168520
#
# Disc length: 2393 seconds
#
# Revision: 8
# Processed by: cddbd v1.5.2PL0 Copyright (c) Steve Scherf et al.
# Submitted via: CDex 1.70beta2
#
DISCID=be095710
DTITLE=Johnny Cash - Love
DYEAR=2000
DGENRE=Country
TTITLE0=I Walk The Line (Mono)
TTITLE1=Oh, What A Dream
TTITLE2=All Over Again
TTITLE3=A Little At A Time
TTITLE4=My Old Faded Rose
TTITLE5=Happiness Is You
TTITLE6=Flesh And Blood
TTITLE7=I Tremble For You
TTITLE8=I Feel Better All Over
TTITLE9='Cause I Love You
TTITLE10=Ballad Of Barbara
TTITLE11=Ring Of Fire
TTITLE12=My Shoes Keep Walking Back To You
TTITLE13=While I've Got It On My Mind
TTITLE14=I Still Miss Someone
TTITLE15=The One Rose (That's Left In My Heart) (Mono)
EXTD=YEAR: 2000
EXTT0=
EXTT1=
EXTT2=
EXTT3=
EXTT4=
EXTT5=
EXTT6=
EXTT7=
EXTT8=
EXTT9=
EXTT10=
EXTT11=
EXTT12=
EXTT13=
EXTT14=
EXTT15=
PLAYORDER=
